<?xml version="1.0" encoding="UTF-8" standalone="no"?>
<svg width="24px" height="24px" viewBox="0 0 24 24" version="1.1" xmlns="http://www.w3.org/2000/svg" xmlns:xlink="http://www.w3.org/1999/xlink" xmlns:sketch="http://www.bohemiancoding.com/sketch/ns">
    <!-- Generator: Sketch 3.4 (15588) - http://www.bohemiancoding.com/sketch -->
    <title>coins</title>
    <desc>Created with Sketch.</desc>
    <defs></defs>
    <g id="UI" stroke="none" stroke-width="1" fill="none" fill-rule="evenodd" sketch:type="MSPage">
        <g id="1-2" sketch:type="MSArtboardGroup" transform="translate(-1163.000000, -313.000000)" fill="#b88b58">
            <g id="Right" sketch:type="MSLayerGroup" transform="translate(1140.000000, 64.000000)">
                <g id="Invest" transform="translate(20.000000, 20.000000)" sketch:type="MSShapeGroup">
                    <g id="Return" transform="translate(0.000000, 194.000000)">
                        <g id="Sum" transform="translate(0.000000, 24.000000)">
                            <g id="ic-coin" transform="translate(0.000000, 8.000000)">
                                <path d="M15.9000732,9.01830001 L15.9000732,7.05001831 L13.9500732,7.05001831 L13.9500732,9.12980594 C13.8560691,9.1501467 13.7640569,9.17287805 13.6740366,9.198 C13.2010343,9.33000066 12.7912884,9.53349863 12.4447866,9.8085 C12.0982849,10.0835014 11.8315376,10.4272479 11.6445366,10.83975 C11.4575357,11.2522521 11.3640366,11.7389972 11.3640366,12.3 C11.3640366,12.9490032 11.4932853,13.4824979 11.7517866,13.9005 C12.0102879,14.3185021 12.3347847,14.6677486 12.7252866,14.94825 C13.1157886,15.2287514 13.5392843,15.465249 13.9957866,15.65775 C14.4522889,15.850251 14.8757847,16.0372491 15.2662866,16.21875 C15.6567886,16.4002509 15.9812853,16.6009989 16.2397866,16.821 C16.4982879,17.0410011 16.6275366,17.3269982 16.6275366,17.679 C16.6275366,18.1410023 16.4487884,18.4847489 16.0912866,18.71025 C15.7337848,18.9357511 15.21954,19.0485 14.5485366,19.0485 C14.2625352,19.0485 13.984788,19.0265002 13.7152866,18.9825 C13.4457853,18.9384998 13.1900378,18.8835003 12.9480366,18.8175 C12.7060354,18.7514997 12.4887876,18.6800004 12.2962866,18.603 C12.1037857,18.5259996 11.9470372,18.4545003 11.8260366,18.3885 L11.1000366,20.319 C11.3970381,20.4730008 11.8590335,20.6269992 12.4860366,20.781 C12.9254323,20.8889217 13.413442,20.9590278 13.9500732,20.9913191 L13.9500732,22.9499817 L15.9000732,22.9499817 L15.9000732,20.9075908 C16.067586,20.8774289 16.2303237,20.840732 16.3882866,20.7975 C16.9107892,20.6544993 17.3562848,20.4345015 17.7247866,20.1375 C18.0932885,19.8404985 18.3792856,19.4692522 18.5827866,19.02375 C18.7862876,18.5782478 18.8880366,18.0475031 18.8880366,17.4315 C18.8880366,16.8154969 18.7587879,16.3012521 18.5002866,15.88875 C18.2417853,15.4762479 17.9172886,15.1297514 17.5267866,14.84925 C17.1362847,14.5687486 16.7127889,14.329501 16.2562866,14.1315 C15.7997843,13.933499 15.3762886,13.7410009 14.9857866,13.554 C14.5952847,13.3669991 14.2707879,13.1635011 14.0122866,12.9435 C13.7537853,12.7234989 13.6245366,12.4485017 13.6245366,12.1185 C13.6245366,11.7664982 13.7647852,11.486001 14.0452866,11.277 C14.325788,11.067999 14.730034,10.9635 15.2580366,10.9635 C15.8190394,10.9635 16.3415342,11.0267494 16.8255366,11.15325 C17.309539,11.2797506 17.6725354,11.4199992 17.9145366,11.574 L18.6240366,9.6765 C18.2390347,9.4564989 17.7495396,9.28875058 17.1555366,9.17325 C16.7545878,9.09528773 16.3361019,9.04363791 15.9000732,9.01830001 Z M15,27 C21.627417,27 27,21.627417 27,15 C27,8.372583 21.627417,3 15,3 C8.372583,3 3,8.372583 3,15 C3,21.627417 8.372583,27 15,27 Z" id="coins"></path>
                            </g>
                        </g>
                    </g>
                </g>
            </g>
        </g>
    </g>
</svg>
