<?xml version="1.0" encoding="UTF-8" standalone="no"?>
<svg width="16px" height="16px" viewBox="0 0 16 16" version="1.1" xmlns="http://www.w3.org/2000/svg" xmlns:xlink="http://www.w3.org/1999/xlink" xmlns:sketch="http://www.bohemiancoding.com/sketch/ns">
    <!-- Generator: Sketch 3.4 (15588) - http://www.bohemiancoding.com/sketch -->
    <title>Oval 11</title>
    <desc>Created with Sketch.</desc>
    <defs></defs>
    <g id="UI" stroke="none" stroke-width="1" fill="none" fill-rule="evenodd" sketch:type="MSPage">
        <g id="1" sketch:type="MSArtboardGroup" transform="translate(-1225.000000, -176.000000)" fill="#B8C5CC">
            <g id="Right" sketch:type="MSLayerGroup" transform="translate(1140.000000, 64.000000)">
                <g id="Invest" transform="translate(20.000000, 20.000000)" sketch:type="MSShapeGroup">
                    <g transform="translate(0.000000, 90.000000)" id="Title">
                        <g>
                            <g id="ic-question" transform="translate(63.000000, 0.000000)">
                                <path d="M10,18 C14.418278,18 18,14.418278 18,10 C18,5.581722 14.418278,2 10,2 C5.581722,2 2,5.581722 2,10 C2,14.418278 5.581722,18 10,18 L10,18 Z M6.89956303,8.15385328 L8.49278337,8.15385328 C8.54702066,7.31317532 9.10973252,6.7775821 9.98430879,6.7775821 C10.8385461,6.7775821 11.4080376,7.299616 11.4080376,8.01826006 C11.4080376,8.6894465 11.1232918,9.0555482 10.2826139,9.56402278 C9.34702066,10.1131753 8.95380032,10.7233448 9.01481727,11.7267346 L9.02159693,12.2080906 L10.5944783,12.2080906 L10.5944783,11.8148702 C10.5944783,11.1369041 10.8453257,10.7843618 11.7334613,10.2691075 C12.6554952,9.71995498 13.1707495,8.99453125 13.1707495,7.95724311 C13.1707495,6.46571769 11.9300715,5.39453125 10.0724444,5.39453125 C8.05888506,5.39453125 6.95380032,6.56063294 6.89956303,8.15385328 L6.89956303,8.15385328 Z M9.82837659,15.3945313 C10.3775291,15.3945313 10.8114274,14.9674126 10.8114274,14.4318194 C10.8114274,13.8962262 10.3775291,13.4758872 9.82837659,13.4758872 C9.27922405,13.4758872 8.83854608,13.8962262 8.83854608,14.4318194 C8.83854608,14.9674126 9.27922405,15.3945313 9.82837659,15.3945313 L9.82837659,15.3945313 Z" id="Oval-11"></path>
                            </g>
                        </g>
                    </g>
                </g>
            </g>
        </g>
    </g>
</svg>