<?xml version="1.0" encoding="UTF-8" standalone="no"?>
<svg width="17px" height="16px" viewBox="0 0 17 16" version="1.1" xmlns="http://www.w3.org/2000/svg" xmlns:xlink="http://www.w3.org/1999/xlink" xmlns:sketch="http://www.bohemiancoding.com/sketch/ns">
    <!-- Generator: Sketch 3.4 (15588) - http://www.bohemiancoding.com/sketch -->
    <title>ic-volume-white-20</title>
    <desc>Created with Sketch.</desc>
    <defs></defs>
    <g id="UI" stroke="none" stroke-width="1" fill="none" fill-rule="evenodd" sketch:type="MSPage">
        <g id="1" sketch:type="MSArtboardGroup" transform="translate(-321.000000, -24.000000)">
            <g id="Menu-2" sketch:type="MSLayerGroup">
                <g id="ic-volume-white-20" transform="translate(319.000000, 22.000000)" sketch:type="MSShapeGroup">
                    <rect id="shape" x="0" y="0" width="20" height="20"></rect>
                    <path d="M2.49538898,6.99999999 C2.2217932,6.99999999 2,7.22788047 2,7.49100517 L2,12.5089948 C2,12.7801695 2.2157526,13 2.49538898,13 L5,13 L5,6.99999999 L2.49538898,6.99999999 L2.49538898,6.99999999 Z M5,6.99999998 L11,1.99999998 L11,18 L5,13 L5,6.99999998 L5,6.99999998 Z M12.9203115,8.79189053 C13.5166748,8.94777735 13.9415548,9.48971545 13.9415548,10.1140219 C13.9415548,10.7384302 13.5166063,11.2805249 12.9205855,11.4360818 L13.2993852,12.8874641 C14.5516274,12.5606385 15.4415548,11.4253837 15.4415548,10.1140219 C15.4415548,8.80281571 14.5518293,7.66796321 13.2996592,7.3406513 L12.9203115,8.79189053 L12.9203115,8.79189053 Z M14.8039071,6.42474224 C16.1504264,7.15133891 17.0068955,8.55645122 17.0068955,10.1140219 C17.0068955,11.6665319 16.1549831,13.0681623 14.8150018,13.7958089 L15.5308129,15.113995 C17.3493481,14.1264805 18.5068955,12.2219963 18.5068955,10.1140219 C18.5068955,7.99959399 17.3432647,6.09055601 15.5162328,5.10466952 L14.8039071,6.42474224 L14.8039071,6.42474224 Z" id="Rectangle-7" fill="#A1ACB3"></path>
                </g>
            </g>
        </g>
    </g>
</svg>