<svg xmlns="http://www.w3.org/2000/svg" xmlns:xlink="http://www.w3.org/1999/xlink" version="1.1" x="0px" y="0px" viewBox="-489 491 100 125" enable-background="new -489 491 100 100" xml:space="preserve"><path d="M-439,549.3c4.6,0,8.3-3.8,8.3-8.3s-3.8-8.3-8.3-8.3s-8.3,3.8-8.3,8.3S-443.6,549.3-439,549.3z M-439,559.8  c-10.3,0-18.8-8.4-18.8-18.8s8.4-18.8,18.8-18.8s18.8,8.4,18.8,18.8S-428.7,559.8-439,559.8z M-439,570.2  c16.1,0,29.2-13.1,29.2-29.2s-13.1-29.2-29.2-29.2s-29.2,13.1-29.2,29.2S-455.1,570.2-439,570.2z M-439,580.6  c-21.8,0-39.6-17.8-39.6-39.6s17.8-39.6,39.6-39.6s39.6,17.8,39.6,39.6S-417.2,580.6-439,580.6z M-439,591c27.6,0,50-22.4,50-50  s-22.4-50-50-50s-50,22.4-50,50S-466.6,591-439,591z"/></svg>
