<?xml version="1.0" encoding="UTF-8" standalone="no"?>
<svg width="14px" height="14px" viewBox="0 0 14 14" version="1.1" xmlns="http://www.w3.org/2000/svg" xmlns:xlink="http://www.w3.org/1999/xlink" xmlns:sketch="http://www.bohemiancoding.com/sketch/ns">
    <!-- Generator: Sketch 3.4.2 (15857) - http://www.bohemiancoding.com/sketch -->
    <title>shape</title>
    <desc>Created with Sketch.</desc>
    <defs></defs>
    <g id="UI" stroke="none" stroke-width="1" fill="none" fill-rule="evenodd" sketch:type="MSPage">
        <g id="1-2" sketch:type="MSArtboardGroup" transform="translate(-33.000000, -373.000000)" fill="#FFFFFF">
            <g id="Graph" sketch:type="MSLayerGroup" transform="translate(-60.000000, 63.000000)">
                <g id="Up-line" transform="translate(80.000000, 299.000000)" sketch:type="MSShapeGroup">
                    <g id="ic-high-copy">
                        <g id="ic-low-20" transform="translate(10.000000, 8.000000)">
                            <g id="shape" transform="translate(10.000000, 10.000000) scale(1, -1) translate(-10.000000, -10.000000) translate(3.500000, 3.000000)">
                                <path d="M6.5,8.21922379 L10.7928932,12.5028847 L11.5,13.2099915 L12.9142136,11.7957779 L12.2071068,11.0886711 L7.20710678,6.08867111 L6.5,5.38156433 L5.79289322,6.08867111 L0.792893219,11.0886711 L0.0857864376,11.7957779 L1.5,13.2099915 L2.20710678,12.5028847 L6.5,8.21922379 Z M6.5,3.21922379 L10.7928932,7.50288467 L11.5,8.20999146 L12.9142136,6.79577789 L12.2071068,6.08867111 L7.20710678,1.08867111 L6.5,0.38156433 L5.79289322,1.08867111 L0.792893219,6.08867111 L0.0857864376,6.79577789 L1.5,8.20999146 L2.20710678,7.50288467 L6.5,3.21922379 Z" id="Shape"></path>
                            </g>
                        </g>
                    </g>
                </g>
            </g>
        </g>
    </g>
</svg>