<?xml version="1.0" encoding="UTF-8" standalone="no"?>
<svg width="16px" height="16px" viewBox="0 0 16 16" version="1.1" xmlns="http://www.w3.org/2000/svg" xmlns:xlink="http://www.w3.org/1999/xlink" xmlns:sketch="http://www.bohemiancoding.com/sketch/ns">
    <!-- Generator: Sketch 3.4 (15588) - http://www.bohemiancoding.com/sketch -->
    <title>ic-coin</title>
    <desc>Created with Sketch.</desc>
    <defs></defs>
    <g id="UI" stroke="none" stroke-width="1" fill="none" fill-rule="evenodd" sketch:type="MSPage">
        <g id="1" sketch:type="MSArtboardGroup" transform="translate(-1176.000000, -220.000000)">
            <g id="Right" sketch:type="MSLayerGroup" transform="translate(1140.000000, 64.000000)">
                <g id="Invest" transform="translate(20.000000, 20.000000)" sketch:type="MSShapeGroup">
                    <g transform="translate(0.000000, 90.000000)" id="Input">
                        <g transform="translate(0.000000, 29.000000)">
                            <g id="Balance" transform="translate(14.000000, 12.000000)">
                                <g id="ic-coin" transform="translate(0.000000, 3.000000)">
                                    <rect id="bounds" x="0" y="0" width="20" height="20"></rect>
                                    <path d="M10.6000488,6.01220001 L10.6000488,4.70001221 L9.30004883,4.70001221 L9.30004883,6.08653729 C9.23737941,6.1000978 9.17603796,6.11525203 9.11602441,6.132 C8.8006895,6.22000044 8.52752557,6.35566575 8.29652441,6.539 C8.06552326,6.72233425 7.8876917,6.95149862 7.76302441,7.2265 C7.63835712,7.50150138 7.57602441,7.82599813 7.57602441,8.2 C7.57602441,8.63266883 7.66219022,8.98833194 7.83452441,9.267 C8.00685861,9.54566806 8.22318978,9.77849906 8.48352441,9.9655 C8.74385905,10.1525009 9.02618956,10.310166 9.33052441,10.4385 C9.63485927,10.566834 9.91718978,10.6914994 10.1775244,10.8125 C10.437859,10.9335006 10.6541902,11.0673326 10.8265244,11.214 C10.9988586,11.3606674 11.0850244,11.5513322 11.0850244,11.786 C11.0850244,12.0940015 10.9658589,12.3231659 10.7275244,12.4735 C10.4891899,12.6238341 10.14636,12.699 9.69902441,12.699 C9.50835679,12.699 9.32319198,12.6843335 9.14352441,12.655 C8.96385685,12.6256665 8.79335855,12.5890002 8.63202441,12.545 C8.47069027,12.5009998 8.32585839,12.4533336 8.19752441,12.402 C8.06919044,12.3506664 7.96469148,12.3030002 7.88402441,12.259 L7.40002441,13.546 C7.5980254,13.6486672 7.90602232,13.7513328 8.32402441,13.854 C8.61695486,13.9259478 8.94229467,13.9726852 9.30004883,13.9942127 L9.30004883,15.2999878 L10.6000488,15.2999878 L10.6000488,13.9383939 C10.711724,13.9182859 10.8202158,13.8938213 10.9255244,13.865 C11.2738595,13.7696662 11.5708565,13.623001 11.8165244,13.425 C12.0621923,13.226999 12.2528571,12.9795015 12.3885244,12.6825 C12.5241918,12.3854985 12.5920244,12.0316687 12.5920244,11.621 C12.5920244,11.2103313 12.5058586,10.8675014 12.3335244,10.5925 C12.1611902,10.3174986 11.944859,10.0865009 11.6845244,9.8995 C11.4241898,9.71249906 11.1418593,9.55300066 10.8375244,9.421 C10.5331896,9.28899934 10.250859,9.16066729 9.99052441,9.036 C9.73018978,8.91133271 9.51385861,8.7756674 9.34152441,8.629 C9.16919022,8.4823326 9.08302441,8.2990011 9.08302441,8.079 C9.08302441,7.84433216 9.17652348,7.65733403 9.36352441,7.518 C9.55052535,7.37866597 9.82002265,7.309 10.1720244,7.309 C10.5460263,7.309 10.8943561,7.35116624 11.2170244,7.4355 C11.5396927,7.51983375 11.7816903,7.61333282 11.9430244,7.716 L12.4160244,6.451 C12.1593565,6.3043326 11.8330264,6.19250039 11.4370244,6.1155 C11.1697252,6.06352515 10.8907346,6.02909194 10.6000488,6.01220001 Z M10,18 C14.418278,18 18,14.418278 18,10 C18,5.581722 14.418278,2 10,2 C5.581722,2 2,5.581722 2,10 C2,14.418278 5.581722,18 10,18 Z" id="coins" fill="#B8C5CC"></path>
                                </g>
                            </g>
                        </g>
                    </g>
                </g>
            </g>
        </g>
    </g>
</svg>