<?xml version="1.0" encoding="UTF-8" standalone="no"?>
<svg width="16px" height="16px" viewBox="0 0 16 16" version="1.1" xmlns="http://www.w3.org/2000/svg" xmlns:xlink="http://www.w3.org/1999/xlink" xmlns:sketch="http://www.bohemiancoding.com/sketch/ns">
    <!-- Generator: Sketch 3.4.2 (15857) - http://www.bohemiancoding.com/sketch -->
    <title>Rectangle 59</title>
    <desc>Created with Sketch.</desc>
    <defs></defs>
    <g id="UI" stroke="none" stroke-width="1" fill="none" fill-rule="evenodd" sketch:type="MSPage">
        <g id="1" sketch:type="MSArtboardGroup" transform="translate(-1160.000000, -777.000000)" fill="#B8C4CC">
            <g id="Right" sketch:type="MSLayerGroup" transform="translate(1140.000000, 64.000000)">
                <g id="History" transform="translate(18.000000, 510.000000)" sketch:type="MSShapeGroup">
                    <g id="3" transform="translate(0.000000, 200.000000)">
                        <g id="ic-deposit-20" transform="translate(0.000000, 1.000000)">
                            <path d="M12,8 L12,2.4963932 C12,2.22618103 11.7804053,2 11.5095215,2 L8.49047852,2 C8.21505737,2 8,2.22224281 8,2.4963932 L8,8 L2.4963932,8 C2.22618103,8 2,8.21959471 2,8.49047852 L2,11.5095215 C2,11.7849426 2.22224281,12 2.4963932,12 L8,12 L8,17.5036068 C8,17.773819 8.21959471,18 8.49047852,18 L11.5095215,18 C11.7849426,18 12,17.7777572 12,17.5036068 L12,12 L17.5036068,12 C17.773819,12 18,11.7804053 18,11.5095215 L18,8.49047852 C18,8.21505737 17.7777572,8 17.5036068,8 L12,8 Z" id="Rectangle-59"></path>
                        </g>
                    </g>
                </g>
            </g>
        </g>
    </g>
</svg>