<?xml version="1.0" encoding="UTF-8" standalone="no"?>
<svg width="51px" height="46px" viewBox="0 0 51 46" version="1.1" xmlns="http://www.w3.org/2000/svg" xmlns:xlink="http://www.w3.org/1999/xlink" xmlns:sketch="http://www.bohemiancoding.com/sketch/ns">
    <!-- Generator: Sketch 3.4.2 (15857) - http://www.bohemiancoding.com/sketch -->
    <title>Rectangle 512</title>
    <desc>Created with Sketch.</desc>
    <defs></defs>
    <g id="UI" stroke="none" stroke-width="1" fill="none" fill-rule="evenodd" sketch:type="MSPage">
        <g id="1" sketch:type="MSArtboardGroup" transform="translate(-1332.000000, -461.000000)" fill="#FFFFFF">
            <g id="Right" sketch:type="MSLayerGroup" transform="translate(1140.000000, 64.000000)">
                <g id="Invest" transform="translate(20.000000, 20.000000)" sketch:type="MSShapeGroup">
                    <g id="Up-or-down" transform="translate(0.000000, 359.000000)">
                        <g id="Down" transform="translate(135.000000, 0.000000)">
                            <g id="shape" transform="translate(62.500000, 41.000000) scale(-1, 1) translate(-62.500000, -41.000000) translate(37.000000, 18.000000)">
                                <path d="M13.0372847,45.0072136 C13.0372847,45.5555144 12.5994034,46 12.0343554,46 L7.04021407,46 C6.48631149,46 6.03728474,45.5476379 6.03728474,45.0072136 L6.03728474,32 L13.0372847,32 L13.0372847,45.0072136 Z M25.0372847,45.0072136 C25.0372847,45.5555144 24.5994034,46 24.0343554,46 L19.0402141,46 C18.4863115,46 18.0372847,45.5476379 18.0372847,45.0072136 L18.0372847,22.5440826 C18.0372847,21.9870766 18.3562498,21.854499 18.7470042,22.2452534 L25.0372847,28.5355339 L25.0372847,45.0072136 Z M37.0372847,45.0072136 C37.0372847,45.5555144 36.5994034,46 36.0343554,46 L31.0402141,46 C30.4863115,46 30.0372847,45.5476379 30.0372847,45.0072136 L30.0372847,31.5355339 L36.3275652,25.2452534 C36.7195325,24.8532861 37.0372847,24.9821526 37.0372847,25.5367837 L37.0372847,45.0072136 Z M5.99909085,17.50266 L0.724922178,12.2284914 C0.328260733,11.83183 0.0186423594,11.9668706 0.018642369,12.5153853 L0.0186426046,26.0290379 C0.0186426141,26.5750428 0.463301638,27.0222116 1.01181633,27.0222116 L14.5254689,27.0222116 C15.0714738,27.0222116 15.2024304,26.7059993 14.8123628,26.3159318 L9.53648637,21.0400554 L17.0372847,13.5467413 L28.3314305,24.8303389 C28.721263,25.2198073 29.3533917,25.219427 29.7491615,24.8236571 L50.0931749,4.47964373 C50.4863336,4.08648504 50.4912966,3.4540119 50.098081,3.0607963 L47.9764884,0.939203704 C47.5860393,0.548754592 46.9530632,0.548882702 46.5659642,0.936220389 L29.0372847,18.4757071 L17.743139,7.17098156 C17.3533065,6.78078384 16.715105,6.78664586 16.3250046,7.17674619 L5.99909085,17.50266 Z M49.0372847,45.0072136 C49.0372847,45.5555144 48.5994034,46 48.0343554,46 L43.0402141,46 C42.4863115,46 42.0372847,45.5476379 42.0372847,45.0072136 L42.0372847,19.5355339 L48.3275652,13.2492744 C48.7195325,12.8575577 49.0372847,12.9866195 49.0372847,13.5472898 L49.0372847,45.0072136 Z" id="Rectangle-512"></path>
                            </g>
                        </g>
                    </g>
                </g>
            </g>
        </g>
    </g>
</svg>