<?xml version="1.0" encoding="UTF-8" standalone="no"?>
<svg width="20px" height="15px" viewBox="0 0 20 15" version="1.1" xmlns="http://www.w3.org/2000/svg" xmlns:xlink="http://www.w3.org/1999/xlink" xmlns:sketch="http://www.bohemiancoding.com/sketch/ns">
    <!-- Generator: Sketch 3.4 (15588) - http://www.bohemiancoding.com/sketch -->
    <title>ic-online</title>
    <desc>Created with Sketch.</desc>
    <defs>
        <path id="path-1" d="M10.3846154,20.1749997 L20.0984016,9.975 L10.3846154,0.429058457 L0.67082919,9.975 L10.3846154,20.1749997 Z"></path>
    </defs>
    <g id="UI" stroke="none" stroke-width="1" fill="none" fill-rule="evenodd" sketch:type="MSPage">
        <g id="1" sketch:type="MSArtboardGroup" transform="translate(-195.000000, -23.000000)">
            <g id="Menu-2" sketch:type="MSLayerGroup">
                <g id="Online" transform="translate(195.000000, 17.000000)">
                    <g id="ic-online">
                        <mask id="mask-2" sketch:name="Carrot" fill="white">
                            <use xlink:href="#path-1"></use>
                        </mask>
                        <use id="Carrot" fill-opacity="0" fill="#000000" sketch:type="MSShapeGroup" xlink:href="#path-1"></use>
                        <path d="M10.3846154,33 C17.8192178,33 23.8461538,27.1237373 23.8461538,19.875 C23.8461538,12.6262627 17.8192178,6.75 10.3846154,6.75 C2.95001298,6.75 -3.07692308,12.6262627 -3.07692308,19.875 C-3.07692308,27.1237373 2.95001298,33 10.3846154,33 Z M10.3846154,30.75 C16.5447145,30.75 21.5384615,25.8810967 21.5384615,19.875 C21.5384615,13.8689033 16.5447145,9 10.3846154,9 C4.22451625,9 -0.769230769,13.8689033 -0.769230769,19.875 C-0.769230769,25.8810967 4.22451625,30.75 10.3846154,30.75 Z" id="Outer" fill="#A1ACB3" sketch:type="MSShapeGroup" mask="url(#mask-2)"></path>
                        <path d="M10.3846154,28.5 C15.2702112,28.5 19.2307692,24.638456 19.2307692,19.875 C19.2307692,15.111544 15.2702112,11.25 10.3846154,11.25 C5.49901952,11.25 1.53846154,15.111544 1.53846154,19.875 C1.53846154,24.638456 5.49901952,28.5 10.3846154,28.5 Z M10.3846154,26.25 C13.995708,26.25 16.9230769,23.3958153 16.9230769,19.875 C16.9230769,16.3541847 13.995708,13.5 10.3846154,13.5 C6.77352279,13.5 3.84615385,16.3541847 3.84615385,19.875 C3.84615385,23.3958153 6.77352279,26.25 10.3846154,26.25 Z" id="Middle" fill="#A1ACB3" sketch:type="MSShapeGroup" mask="url(#mask-2)"></path>
                        <ellipse id="Inner" fill="#A1ACB3" sketch:type="MSShapeGroup" mask="url(#mask-2)" cx="10.3846154" cy="19.875" rx="4.23076923" ry="4.125"></ellipse>
                    </g>
                </g>
            </g>
        </g>
    </g>
</svg>