<?xml version="1.0" encoding="UTF-8" standalone="no"?>
<svg width="19px" height="15px" viewBox="0 0 19 15" version="1.1" xmlns="http://www.w3.org/2000/svg" xmlns:xlink="http://www.w3.org/1999/xlink" xmlns:sketch="http://www.bohemiancoding.com/sketch/ns">
    <!-- Generator: Sketch 3.4.2 (15857) - http://www.bohemiancoding.com/sketch -->
    <title>Fill 1</title>
    <desc>Created with Sketch.</desc>
    <defs></defs>
    <g id="UI" stroke="none" stroke-width="1" fill="none" fill-rule="evenodd" sketch:type="MSPage">
        <g id="1" sketch:type="MSArtboardGroup" transform="translate(-391.000000, -25.000000)" fill="#A1ACB3">
            <g id="Menu" sketch:type="MSLayerGroup">
                <g id="Left" transform="translate(200.000000, 18.000000)" sketch:type="MSShapeGroup">
                    <g id="tw" transform="translate(190.000000, 4.000000)">
                        <path d="M20,4.77567086 C19.3009218,5.07684829 18.5496507,5.2804013 17.7611288,5.37194952 C18.5659827,4.90327125 19.1840265,4.16116357 19.4750832,3.27694011 C18.7219357,3.71084896 17.8876843,4.02600167 16.9997805,4.19586548 C16.2886792,3.45990152 15.2756099,3 14.1544716,3 C12.0016387,3 10.2562713,4.6954649 10.2562713,6.78669355 C10.2562713,7.08348261 10.2908117,7.37250763 10.3572515,7.64965028 C7.1175427,7.49173636 4.24526866,5.98416135 2.32268188,3.69316044 C1.98714657,4.25244174 1.79491569,4.90293368 1.79491569,5.59690428 C1.79491569,6.91064822 2.48315227,8.06971887 3.52909397,8.74876901 C2.89006182,8.7291226 2.28904495,8.5587862 1.76343319,8.27516226 C1.7631552,8.2909604 1.7631552,8.30682606 1.7631552,8.32275923 C1.7631552,10.1575043 3.10682541,11.6880339 4.89006913,12.0358631 C4.56294305,12.1224154 4.21858151,12.1686621 3.86303084,12.1686621 C3.61186583,12.1686621 3.36765061,12.1449648 3.12969019,12.1007435 C3.62569589,13.6052129 5.06527305,14.7000108 6.77102674,14.7305944 C5.43694722,15.746199 3.75614324,16.351592 1.92988039,16.351592 C1.61526391,16.351592 1.30495629,16.3337009 1,16.2987289 C2.72507407,17.3731378 4.77407733,18 6.97541973,18 C14.1453674,18 18.0661546,12.2298292 18.0661546,7.22580093 C18.0661546,7.06160826 18.0624017,6.89829326 18.0548959,6.73592345 C18.8164527,6.2020272 19.4773766,5.53506198 20,4.77567086" id="Fill-1"></path>
                    </g>
                </g>
            </g>
        </g>
    </g>
</svg>