<?xml version="1.0" encoding="UTF-8" standalone="no"?>
<svg width="53px" height="48px" viewBox="0 0 53 48" version="1.1" xmlns="http://www.w3.org/2000/svg" xmlns:xlink="http://www.w3.org/1999/xlink" xmlns:sketch="http://www.bohemiancoding.com/sketch/ns">
    <!-- Generator: Sketch 3.4.2 (15857) - http://www.bohemiancoding.com/sketch -->
    <title>Rectangle 512</title>
    <desc>Created with Sketch.</desc>
    <defs></defs>
    <g id="UI" stroke="none" stroke-width="1" fill="none" fill-rule="evenodd" sketch:type="MSPage">
        <g id="1" sketch:type="MSArtboardGroup" transform="translate(-1196.000000, -459.000000)" fill="#FFFFFF">
            <g id="Right" sketch:type="MSLayerGroup" transform="translate(1140.000000, 64.000000)">
                <g id="Invest" transform="translate(20.000000, 20.000000)" sketch:type="MSShapeGroup">
                    <g id="Up-or-down" transform="translate(0.000000, 359.000000)">
                        <g id="Up">
                            <g id="shape" transform="translate(36.000000, 16.000000)">
                                <path d="M11,47.0072136 C11,47.5555144 10.5621186,48 9.99707067,48 L5.00292933,48 C4.44902676,48 4,47.5476379 4,47.0072136 L4,35.5355339 L10.2902805,29.2452534 C10.6822478,28.8532861 11,28.9921398 11,29.5286516 L11,47.0072136 Z M23,47.0072136 C23,47.5555144 22.5621186,48 21.9970707,48 L17.0029293,48 C16.4490268,48 16,47.5476379 16,47.0072136 L16,26.5423584 C16,25.9863046 16.3189651,25.854499 16.7097195,26.2452534 L23,32.5355339 L23,47.0072136 Z M35,47.0072136 C35,47.5555144 34.5621186,48 33.9970707,48 L29.0029293,48 C28.4490268,48 28,47.5476379 28,47.0072136 L28,35.5355339 L28.767767,34.767767 L34.2971983,29.2383356 C34.685345,28.850189 35,28.9921398 35,29.5286516 L35,47.0072136 Z M47.017767,9.51776687 L52.2937204,14.7937202 C52.6903819,15.1903816 53.0000003,15.055341 53.0000003,14.5068263 L53,0.993173711 C53,0.447168827 52.555341,0 52.0068263,0 L38.4931737,0 C37.9471688,0 37.8162122,0.316212244 38.2062798,0.706279814 L43.4826214,5.9826213 L27,22.472559 L15.7058543,11.1707964 C15.3160217,10.7807009 14.6778202,10.7866459 14.2877199,11.1767462 L0.944513143,24.519953 C0.551131708,24.9133344 0.545988096,25.5459881 0.939203704,25.9392037 L3.0607963,28.0607963 C3.45124541,28.4512454 4.07990429,28.4561035 4.47039344,28.0662072 L15,17.5525875 L26.2941457,28.8306828 C26.6839783,29.2199613 27.316107,29.219427 27.7118768,28.8236571 L47.017767,9.51776687 Z M47,47.0072136 C47,47.5555144 46.5621186,48 45.9970707,48 L41.0029293,48 C40.4490268,48 40,47.5476379 40,47.0072136 L40,23.5355339 L46.2902805,17.2492744 C46.6822478,16.8575577 47,16.9943408 47,17.5363852 L47,47.0072136 Z" id="Rectangle-512"></path>
                            </g>
                        </g>
                    </g>
                </g>
            </g>
        </g>
    </g>
</svg>