<?xml version="1.0" encoding="UTF-8" standalone="no"?>
<svg width="16px" height="4px" viewBox="0 0 16 4" version="1.1" xmlns="http://www.w3.org/2000/svg" xmlns:xlink="http://www.w3.org/1999/xlink" xmlns:sketch="http://www.bohemiancoding.com/sketch/ns">
    <!-- Generator: Sketch 3.4 (15588) - http://www.bohemiancoding.com/sketch -->
    <title>Oval 45</title>
    <desc>Created with Sketch.</desc>
    <defs></defs>
    <g id="UI" stroke="none" stroke-width="1" fill="none" fill-rule="evenodd" sketch:type="MSPage">
        <g id="1-3" sketch:type="MSArtboardGroup" transform="translate(-1242.000000, -30.000000)" fill="#2DA2E0">
            <g id="Menu-2" sketch:type="MSLayerGroup">
                <g id="Help" transform="translate(1230.000000, 12.000000)" sketch:type="MSShapeGroup">
                    <path d="M14,22 C15.1045695,22 16,21.1045695 16,20 C16,18.8954305 15.1045695,18 14,18 C12.8954305,18 12,18.8954305 12,20 C12,21.1045695 12.8954305,22 14,22 Z M20,22 C21.1045695,22 22,21.1045695 22,20 C22,18.8954305 21.1045695,18 20,18 C18.8954305,18 18,18.8954305 18,20 C18,21.1045695 18.8954305,22 20,22 Z M26,22 C27.1045695,22 28,21.1045695 28,20 C28,18.8954305 27.1045695,18 26,18 C24.8954305,18 24,18.8954305 24,20 C24,21.1045695 24.8954305,22 26,22 Z" id="Oval-45"></path>
                </g>
            </g>
        </g>
    </g>
</svg>