<?xml version="1.0" encoding="UTF-8" standalone="no"?>
<svg width="52px" height="24px" viewBox="0 0 52 24" version="1.1" xmlns="http://www.w3.org/2000/svg" xmlns:xlink="http://www.w3.org/1999/xlink" xmlns:sketch="http://www.bohemiancoding.com/sketch/ns">
    <!-- Generator: Sketch 3.4 (15588) - http://www.bohemiancoding.com/sketch -->
    <title>steam</title>
    <desc>Created with Sketch.</desc>
    <defs></defs>
    <g id="2-bets" stroke="none" stroke-width="1" fill="none" fill-rule="evenodd" sketch:type="MSPage">
        <g id="2-bets-playing" sketch:type="MSArtboardGroup" transform="translate(-718.000000, -312.000000)" fill="#FFFFFF" opacity="0.2">
            <g id="Pop-menu" sketch:type="MSLayerGroup" transform="translate(698.000000, 220.000000)">
                <path d="M49.9162575,106.609014 C50.6461748,106.042029 51.529873,105.662006 52.4946629,105.541283 L57.6845102,98.9049041 C57.8013785,95.0717078 60.9605283,92 64.8405797,92 C68.7946184,92 72,95.1899712 72,99.125 C72,102.986397 68.913453,106.130359 65.0617389,106.246665 C63.1386722,107.736135 60.4400131,109.826324 58.3933003,111.411561 C58.0664332,113.998757 55.8477635,116 53.1594203,116 C50.4928195,116 48.2883259,114.030996 47.9338415,111.474219 L28.5185251,103.640986 C27.6238798,104.335928 26.4982105,104.75 25.2753623,104.75 C22.3618602,104.75 20,102.399495 20,99.5 C20,96.6005051 22.3618602,94.25 25.2753623,94.25 C27.9419631,94.25 30.1464567,96.2190035 30.5009411,98.775781 L49.9162575,106.609014 Z M51.6553405,107.310658 C52.1160709,107.110827 52.6247405,107 53.1594203,107 C55.2404933,107 56.9275362,108.678932 56.9275362,110.75 C56.9275362,112.821068 55.2404933,114.5 53.1594203,114.5 C51.5856408,114.5 50.2372035,113.539834 49.6733153,112.176021 L52.16843,113.182691 C53.5184584,113.727368 55.0565542,113.079764 55.603863,111.736226 C56.1511718,110.392688 55.500439,108.861987 54.1504106,108.317309 L51.6553405,107.310658 Z M26.7794421,102.939342 C26.3187117,103.139173 25.8100421,103.25 25.2753623,103.25 C23.1942893,103.25 21.5072464,101.571068 21.5072464,99.5 C21.5072464,97.4289322 23.1942893,95.75 25.2753623,95.75 C26.8491418,95.75 28.1975791,96.7101659 28.7614673,98.0739793 L26.2663526,97.0673094 C24.9163242,96.5226319 23.3782284,97.1702362 22.8309196,98.5137741 C22.2836108,99.857312 22.9343436,101.388013 24.284372,101.932691 L26.7794421,102.939342 Z M64.8405797,104 C67.5459746,104 69.7391304,101.817388 69.7391304,99.125 C69.7391304,96.4326118 67.5459746,94.25 64.8405797,94.25 C62.1351848,94.25 59.942029,96.4326118 59.942029,99.125 C59.942029,101.817388 62.1351848,104 64.8405797,104 Z M64.8405797,102.875 C66.9216527,102.875 68.6086957,101.196068 68.6086957,99.125 C68.6086957,97.0539322 66.9216527,95.375 64.8405797,95.375 C62.7595067,95.375 61.0724638,97.0539322 61.0724638,99.125 C61.0724638,101.196068 62.7595067,102.875 64.8405797,102.875 Z" id="steam" sketch:type="MSShapeGroup"></path>
            </g>
        </g>
    </g>
</svg>